File Name

Caught In The Crossfire BRRip H264.mp4

File Size
Format : MPEG-4
Format profile : Base Media
Codec ID : isom
File size : 1.52 GiB
Duration : 1h 24mn
Overall bit rate : 2 575 Kbps

Video
ID : 1
Format : AVC
Format/Info : Advanced Video Codec
Format profile : High@L4.1
Format settings, CABAC : Yes
Format settings, ReFrames : 3 frames
Codec ID : avc1
Codec ID/Info : Advanced Video Coding
Duration : 1h 24mn
Bit rate mode : Variable
Bit rate : 1 999 Kbps
Maximum bit rate : 10.6 Mbps
Width : 1 280 pixels
Height : 720 pixels
Display aspect ratio : 16:9
Frame rate mode : Constant
Frame rate : 23.976 fps
Resolution : 24 bits
Colorimetry : 4:2:0
Scan type : Progressive
Bits/(Pixel*Frame) : 0.090
Stream size : 1.18 GiB (77%)

Audio #1
ID : 2
Format : AAC
Format/Info : Advanced Audio Codec
Format version : Version 4
Format profile : LC
Format settings, SBR : No
Codec ID : 40
Duration : 1h 24mn
Bit rate mode : Variable
Bit rate : 128 Kbps
Maximum bit rate : 138 Kbps
Channel(s) : 2 channels
Channel positions : L R
Sampling rate : 48.0 KHz
Resolution : 16 bits
Stream size : 77.5 MiB (5%)

Audio #2
ID : 3
Format : AAC
Format/Info : Advanced Audio Codec
Format version : Version 4
Format profile : LC
Format settings, SBR : No
Codec ID : 40
Duration : 1h 27mn
Bit rate mode : Variable
Bit rate : 448 Kbps
Maximum bit rate : 467 Kbps
Channel(s) : 6 channels
Channel positions : Front: L C R, Rear: L R, LFE
Sampling rate : 48.0 KHz
Resolution : 16 bits
Stream size : 271 MiB (17%)

English SRT : External

Language : English


 
http://www.imdb.com/title/tt1449379/

Release Date: ----

Genre: Crime 

Plot: Two detectives investigating a gang-related find themselves targeted by both gang members and crooked cops.

Cast: 
50 Cent ... Tino
Jason Ambrose ... Cominsky
Tim Fields ... Lerner
Sydney Hall ... Michael Pips
Richard T. Jones ... Captain Emmett
Lyle Kanouse ... Detective Evans
Chris Klein ... Briggs
Christine Lakin ... Tracy
Michael Matthias ... Lieutenant Michaels
Brian A Miller ... A.D.A. Kevin Andrews
R.D. Miller Jr. ... Benton
Roy Oraschin ... Johnson
Kurt Race ... Andre Cruz
Adam Rodriguez ... Shepherd
Alyssa Julya Smith ... Sarah Jackson


Screens
 
http://www.postimg.com/image/19000/18028.jpg
 
http://www.postimg.com/image/19000/18029.jpg
 
http://www.postimg.com/image/19000/18030.jpg